<?xml version="1.0" encoding="utf-8"?>
<!-- Generator: Adobe Illustrator 25.2.0, SVG Export Plug-In . SVG Version: 6.00 Build 0)  -->
<svg version="1.1" id="Layer_1" xmlns="http://www.w3.org/2000/svg" xmlns:xlink="http://www.w3.org/1999/xlink" x="0px" y="0px"
	 viewBox="0 0 186.8 186.9" style="enable-background:new 0 0 186.8 186.9;" xml:space="preserve">
<style type="text/css">
	.st0{fill:#C2C1C1;}
	.st1{fill:#8E8E8E;}
	.st2{fill:#022835;}
</style>
<g>
	<path class="st0" d="M50.7,25.5c25.8-15.8,52.7-16.8,79.5-3.8c32.6,15.8,50.6,51.2,45,86c-5.8,36.4-33.3,64.4-69.7,69.2
		c-34.1,4.5-61.2-8.4-81.1-36.4c-0.3-0.4-0.3-0.9-0.5-1.4c2.8,0.1,5.6,0.2,8.5,0.1c7.5,0,12.8-3.9,15.5-10.5
		c4.2-10.3,4.7-21.4,3.1-32.3c-1.3-9-7.3-15.9-13.6-15.8c-8.2,0-15.8,2.2-20.9,9.5c-1.7,2.5-3.4,4.9-5.1,7.4c-0.7-6.9,0-13.7,2-20.4
		c2,4.4,5.6,4.8,9.6,3.6c6.8-2.1,11.1-6.9,13.8-13.4c2.8-7-0.7-12.6-8.3-13c-1.9-0.1-4.1,0.7-5.2-1.8c4.1-7,9.1-13.3,15.5-18.4
		c2.8,1.1,5.5,2.3,8.4,3.1c9.4,2.8,20.2-3.4,22.6-12.9c0.7-2.8,0.5-3.8-3-3.5C61.2,21.5,56.4,25,50.7,25.5z M74.7,90.3
		c12.2,0,20.7-7.9,20.7-19.3c0-11.3-8.3-19.5-19.5-19.3C65.4,52,56.5,60.8,56.5,71.2C56.6,82.9,63.6,90.3,74.7,90.3z M68.6,100.4
		c-6.3,0.1-10.4,3-12,8.5c-1.9,6.6,0.9,15.3,6,18.7c5.2,3.5,16.9,2.7,21.7-1.5c5.1-4.4,6.7-11.6,3-16
		C82.6,104.4,76.6,100.4,68.6,100.4z M144,109.4c0,0.1,0,0.1,0,0.2c-1.5,0-3-0.2-4.5,0c-4.8,0.7-9.4,6.1-9.5,10.9
		c0,4.8,4.1,9.7,8.9,10.7c7.3,1.5,13.7-2.1,16.1-9.2c2-5.7-1.1-11.1-7.1-12.3C146.7,109.4,145.4,109.5,144,109.4z M71.3,141.6
		c-4.9,0.1-9.4,3.9-9.3,8c0.1,4.5,7.1,9.7,13,9.7c3.8,0,7.3-3.6,7.3-7.4C82.3,146.4,76.9,141.4,71.3,141.6z M117.5,152.3
		c4-0.1,7.7-3.4,7.7-7c0-4.7-3.4-7.9-8.4-7.8c-4.8,0-7.4,2.5-7.2,6.8C109.8,148.8,113.3,152.3,117.5,152.3z M86.6,171.9
		c3.5,0,6.9-3.4,6.6-6.7c-0.3-3.4-2.3-4.8-5.6-4.8c-3.8,0.1-6.6,1.4-6.8,5.5C80.6,169.7,83,171.5,86.6,171.9z M99.4,35.1
		c-0.1-3.2-1-5.3-4.2-5.5c-3.8-0.1-7.5,3.1-7.6,6.5c-0.1,3.7,2.4,5,5.5,5C97.3,41.2,98.8,38.3,99.4,35.1z M116,69.5
		c-1.6,5.8-4.5,11.3,0.6,16c2.7,2.5,10-0.8,14.5-6C119.2,84.8,117.2,83.6,116,69.5z M93.2,96.3c0.7,3.5,2.2,5.4,4.9,5.9
		c2.7,0.5,4.6-0.8,6.3-3.7C100,100.4,96.5,99.9,93.2,96.3z"/>
	<path class="st1" d="M11.5,97.6c1.7-2.5,3.4-4.9,5.1-7.4c5-7.3,12.7-9.5,20.9-9.5c6.3,0,12.2,6.9,13.6,15.8
		c1.6,10.9,1,21.9-3.1,32.3c-2.7,6.6-8,10.5-15.5,10.5c-2.8,0-5.6-0.1-8.5-0.1C15.8,126.5,11.4,112.7,11.5,97.6z"/>
	<path class="st1" d="M23.4,52.6c1.1,2.4,3.4,1.6,5.2,1.8c7.6,0.5,11.1,6.1,8.3,13c-2.6,6.5-6.9,11.3-13.8,13.4
		c-4,1.2-7.6,0.8-9.6-3.6C15.3,68.4,18.2,60.1,23.4,52.6z"/>
	<path class="st1" d="M50.7,25.5c5.7-0.5,10.4-4,16.1-4.5c3.5-0.3,3.7,0.7,3,3.5c-2.4,9.5-13.2,15.7-22.6,12.9
		c-2.9-0.9-5.6-2.1-8.4-3.1C42.4,30.7,46.2,27.6,50.7,25.5z"/>
	<path class="st1" d="M74.7,90.3c-11.1,0-18.1-7.5-18.1-19.1c0-10.3,8.8-19.2,19.3-19.4c11.3-0.2,19.6,8,19.5,19.3
		C95.4,82.5,86.9,90.4,74.7,90.3z M69.5,70.4c-0.2-0.2-0.4-0.5-0.5-0.7c-0.1,0.1-0.1,0.3-0.2,0.4C69,70.2,69.2,70.3,69.5,70.4
		c-0.5,2.6,1.6,4.3,2.7,6.1c2.5,4.2,10,4.4,12.3,0.4c1.7-3,1.9-6.8,2-11.6C81.1,77.4,78.6,78,69.5,70.4z"/>
	<path class="st1" d="M68.6,100.4c8-0.1,14,3.9,18.8,9.7c3.7,4.4,2,11.7-3,16c-4.8,4.2-16.5,5-21.7,1.5c-5.1-3.4-7.9-12.2-6-18.7
		C58.2,103.5,62.4,100.5,68.6,100.4z"/>
	<path class="st1" d="M144,109.4c1.3,0.1,2.7,0,4,0.3c6,1.2,9,6.6,7.1,12.3c-2.4,7.1-8.8,10.7-16.1,9.2c-4.8-1-9-5.9-8.9-10.7
		c0-4.8,4.7-10.2,9.5-10.9c1.5-0.2,3,0,4.5,0C144,109.5,144,109.4,144,109.4z"/>
	<path class="st1" d="M71.3,141.6c5.6-0.1,10.9,4.9,11,10.2c0,3.8-3.5,7.4-7.3,7.4c-5.9,0.1-12.9-5.1-13-9.7
		C61.9,145.5,66.4,141.7,71.3,141.6z"/>
	<path class="st1" d="M117.5,152.3c-4.2,0.1-7.7-3.4-7.9-7.9c-0.2-4.3,2.4-6.8,7.2-6.8c5,0,8.5,3.1,8.4,7.8
		C125.2,148.8,121.5,152.2,117.5,152.3z"/>
	<path class="st1" d="M86.6,171.9c-3.6-0.3-6-2.2-5.9-6c0.2-4.1,3-5.4,6.8-5.5c3.4-0.1,5.4,1.4,5.6,4.8
		C93.5,168.5,90.1,171.8,86.6,171.9z"/>
	<path class="st1" d="M99.4,35.1c-0.6,3.2-2.1,6.1-6.3,6.1c-3.1,0-5.5-1.3-5.5-5c0.1-3.4,3.8-6.7,7.6-6.5
		C98.4,29.8,99.3,31.9,99.4,35.1z"/>
	<path class="st2" d="M116,69.5c1.2,14.1,3.2,15.3,15.1,10c-4.5,5.2-11.8,8.5-14.5,6C111.5,80.8,114.4,75.3,116,69.5z"/>
	<path class="st2" d="M93.2,96.3c3.3,3.6,6.8,4.1,11.2,2.2c-1.7,2.9-3.6,4.2-6.3,3.7C95.4,101.7,93.9,99.8,93.2,96.3z"/>
	<path class="st2" d="M69.5,70.4c9.1,7.7,11.7,7.1,17-5.1c0,4.8-0.3,8.6-2,11.6c-2.3,4-9.8,3.8-12.3-0.4C71.1,74.7,69,73,69.5,70.4
		L69.5,70.4z"/>
	<path class="st2" d="M69.5,70.4c-0.2-0.1-0.5-0.2-0.7-0.3c0.1-0.1,0.1-0.3,0.2-0.4C69.1,69.9,69.3,70.1,69.5,70.4
		C69.5,70.4,69.5,70.4,69.5,70.4z"/>
</g>
</svg>
