<?xml version="1.0" encoding="utf-8"?>
<!-- Generator: Adobe Illustrator 25.2.0, SVG Export Plug-In . SVG Version: 6.00 Build 0)  -->
<svg version="1.1" id="Layer_1" xmlns="http://www.w3.org/2000/svg" xmlns:xlink="http://www.w3.org/1999/xlink" x="0px" y="0px"
	 viewBox="0 0 186.8 186.9" style="enable-background:new 0 0 186.8 186.9;" xml:space="preserve">
<style type="text/css">
	.st0{fill:#E88B44;}
	.st1{fill:#F8E39C;}
	.st2{fill:#455C92;}
</style>
<g>
	<path class="st0" d="M161.7,32.1c-0.6,2.6-2.5,4.7-2.7,7.6c-0.4,6.6,4.5,12.9,11.1,13.8c1.6,0.2,3.3,0.3,6,0.5
		c-4.7,4.9-6.6,10-4.2,15.9c2.5,5.9,7.5,7.8,14.9,7.9c-7,2.7-11.2,6.3-11.5,12.8c-0.3,6.5,3.5,10.5,9.7,13.8c-6,1.8-10.7,4-12.3,9.9
		c-1.5,5.9,0.5,10.6,5.6,15.1c-6.8,0.2-12.2,1.4-15.1,7.2c-2.9,5.8-1.5,11.1,3.5,16.8c-7.5-4.1-13.6-4.3-18.7,1.2
		c-4.3,4.6-4.4,10-1.5,15.4l0-0.1c-1.1,0.5-1.6-0.4-2.3-1c-4.4-3.8-9.3-4.8-14.6-2.2c-5.3,2.7-7.6,7.1-7,12.9c0.1,0.6,0,1.2,0,2.9
		c-3.8-6.9-8.8-10.3-15.9-8.6c-6.5,1.6-9.6,6.3-10.2,13.1C95,180,91.4,175,84,174.4c-6.7-0.6-11,3.2-13.9,9.1
		c0.4-6.3-1.2-11.6-7-14.6c-5.9-3.1-11.3-1.2-17.1,3.8c1.7-6.2,1.4-10.4-1.6-14.2c-2.4-3-5.4-4.7-9.2-4.9c-0.4,0-0.8-0.2-1.2-0.1
		c-5.5,0.5-5.4,0.6-5.1-4.8c0.3-3.6,0.8-7.4-2.7-10c-3.8-6-9.7-4.7-15.3-4.6l0,0c6.5-6.5,8-11,5.3-16.9c-1.5-3.3-3.8-5.7-7.4-6.8
		c-1.3-0.4-2.7-0.6-3.3-2.1C16.6,96.9,14.9,87.6,0,82.7c7.8-0.5,13.6-2.7,15.5-10.4c1.4-5.7-0.9-9.9-5.4-13.8
		c6.1-0.4,11.6-1.9,14.6-7.2c3.2-5.6,1.6-10.9-2.3-15.4c1.1-1.3,1.8-0.4,2.6-0.1c9.9,3.9,18.7-2.4,18.4-13.1c0-1.2-1.6-3.6,2-2.7
		c13.9,3.7,18.6,0.6,20.8-13.8c2.3,3.2,4.5,6,8.1,7.1c5.9,1.8,11.9-0.3,15.1-5.9c1.5-2.7,2.6-2.9,4.5-0.7c8.4,9.7,16.9,8.8,24.2-3.1
		c0.1,3.9-0.2,7.3,1.8,10.3c3.8,6,11.3,8,17.7,4.3c2.8-1.6,3.4-1.4,3.5,1.9c0.2,11,8.4,16.5,18.6,12.5
		C160.3,32.1,161,31.6,161.7,32.1L161.7,32.1z M168.2,94.1c1-38.5-31.2-74.1-73.7-74.5c-40.9-0.4-74.8,33.2-74.9,73.8
		c-0.1,41.8,32.9,75.2,74.5,75.1C135.5,168.4,168.9,134.8,168.2,94.1z"/>
	<path class="st0" d="M26.1,138.7c3.5,2.6,3,6.4,2.7,10c-0.4,5.4-0.5,5.4,5.1,4.8c0.4,0,0.8,0.1,1.2,0.1c-1.9,0.6-3.7,1-5.5,1.7
		c-1.6,0.6-2.8,2.3-5.3,1.3C28.8,151.1,28.5,145,26.1,138.7z"/>
	<path class="st0" d="M10.8,134.1c-0.1,0-0.2,0.1-0.3,0.1C10.5,134.2,10.7,134.2,10.8,134.1C10.8,134.2,10.8,134.1,10.8,134.1z"/>
	<path class="st0" d="M146.5,170.1c0,0.2,0,0.5,0.1,0.7C146.5,170.5,146.5,170.3,146.5,170.1C146.5,170,146.5,170.1,146.5,170.1z"/>
	<path class="st0" d="M161.7,32.2c-0.1-0.2-0.1-0.4-0.2-0.6c0.2,0,0.4,0,0.6,0C162,31.8,161.8,32,161.7,32.2
		C161.7,32.1,161.7,32.2,161.7,32.2z"/>
	<path class="st1" d="M168.2,94.1c0.7,40.8-32.7,74.3-74.1,74.4c-41.6,0.1-74.5-33.3-74.5-75.1c0.1-40.6,34-74.2,74.9-73.8
		C137,19.9,169.3,55.5,168.2,94.1z M79.4,71.2c-0.1-1.7-0.7-3.5-2.5-4.7c-1.5-1-3.2-3.1-3.5,1.1c-0.2,2.7-2.7,3.6-4.7,2.3
		c-3-1.9-2.8,0.1-2.9,1.9c-0.1,3.8,3.1,6.9,6.9,6.8C76.5,78.5,79.5,75.3,79.4,71.2z M116.6,65.2c0.1,3.6-1.4,6.6-5.2,4.6
		c-3.3-1.7-2.9,0.3-2.8,1.9c0.1,3.8,2.2,6.1,5.9,6.9c3.2,0.7,6.7-1.8,7.4-5.1C122.8,69.5,121.2,67,116.6,65.2z M46.8,137.2
		c0.4,4.6,4.6,10.1,8.3,11.1c1,0.3,2.2,0.5,2.9-0.4c1-1.2,0.3-2.3-0.5-3.2C54.5,141.5,50.9,139.2,46.8,137.2z M98.9,161.2
		c1.6-0.5,4.2-0.3,4.3-2.8c0.1-2.8-2.6-2.4-4.4-2.5c-2.7-0.1-5.4,0.1-8.1,0.2c-0.8,0-1.6,0.2-1.8,1c-0.2,0.8,0.5,1.3,1.2,1.6
		C92.8,159.8,95.7,160.8,98.9,161.2z M56,128.3c-1.4,0-2.3,0.7-2.4,2.1c-0.3,2.1,1.3,3.2,2.8,4.3c1.7,1.2,3.3,2.8,5.7,2
		c0.9-0.3,1.4-1,1.2-2.1C63,132.5,58.2,128.3,56,128.3z M73.6,158.1c1.7,0.3,3.6-0.4,3.3-2c-0.8-4.4-5-3.3-8-4.1
		c-1.1-0.3-3.2-0.7-2.7,1C67.2,156.3,70.3,157.6,73.6,158.1z M42.6,130.5c0.1-2.6-4.6-7.4-6.9-7.5c-1,0-1.5,0.5-1.3,1.3
		c0.8,3.1,1.9,6.1,5,7.6C41.1,132.7,42.5,132.2,42.6,130.5z M110.5,155.6c4.7,2.3,8.4,2.1,12,1.6c1.2-0.1,2.5-0.6,2.3-2.2
		c-0.2-1.3-1.4-1.7-2.4-1.5C118.9,153.9,115.1,153.8,110.5,155.6z M27.5,103.4c-1.7,0.8-2.2,1.7-2.1,2.8c0.2,2.7,1,5.2,2.3,7.6
		c0.5,0.9,1.2,1.9,2.4,1.5c1.4-0.5,1.6-1.8,1.2-3c-0.9-2.5-2-4.9-3.1-7.4C28,104.4,27.7,103.9,27.5,103.4z M93.9,152.4
		c1.4-0.4,3.9,0.6,4.2-2c0.2-2.2-1.8-2.5-3.5-2.5c-1.8,0.1-4.5-0.6-4.8,2C89.5,152.5,92.1,152,93.9,152.4z M112.3,146.9
		c-1.4,0.5-4.3-0.6-4,2c0.3,2.2,3.3,2.1,5.2,2.3c1.4,0.1,3.5-0.1,3.2-2.1C116.4,146.8,114.1,147,112.3,146.9z M88.3,86.8
		c1.2,3.2,3,5.4,6.5,5c2.5-0.3,3.7-1.9,4.4-5.4C95.6,89.6,92.1,89.4,88.3,86.8z M72.7,141.2c-0.9,0-2,0.3-1.7,1
		c1,2.6,3.4,3.6,5.8,4.2c1,0.3,2.5-0.2,2-1.6C77.9,142,74.9,142.1,72.7,141.2z M35.9,98.4c-0.8,0.1-1.3,0.5-1.2,1.2
		c0.3,2.4,0.6,4.8,2.3,6.7c0.6,0.6,1.4,0.9,2,0.4c1.1-1.1,0.8-2.5,0.3-3.8C38.5,101.1,37.8,99.2,35.9,98.4z M49.9,120.4
		c-1.1-1.7-1.8-4-4.2-4.5c-0.8-0.2-1.1,0.9-0.9,1.7c0.5,2.1,1,4.5,3.7,4.9C49.5,122.6,50,121.7,49.9,120.4z M24.4,95.4
		c0.9-3.3,1-6.5-0.1-11C22.4,89,22.1,92.2,24.4,95.4z M130.3,150c1.3-0.3,2.6-0.9,2.8-2.4c0.2-1.2-0.8-1.5-1.7-1.4
		c-1.3,0.2-2.7,0.6-2.9,2.2C128.5,149.6,129.2,150,130.3,150z"/>
	<path class="st2" d="M79.4,71.2c0.1,4.1-2.9,7.3-6.7,7.4c-3.8,0.1-7-3-6.9-6.8c0-1.8-0.2-3.8,2.9-1.9c2,1.3,4.5,0.5,4.7-2.3
		c0.3-4.2,2-2.1,3.5-1.1C78.7,67.7,79.3,69.5,79.4,71.2z"/>
	<path class="st2" d="M116.6,65.2c4.7,1.8,6.2,4.3,5.3,8.3c-0.8,3.3-4.2,5.7-7.4,5.1c-3.7-0.7-5.8-3-5.9-6.9c0-1.7-0.5-3.7,2.8-1.9
		C115.2,71.8,116.6,68.8,116.6,65.2z"/>
	<path class="st0" d="M46.8,137.2c4.1,2,7.7,4.2,10.7,7.4c0.8,0.9,1.5,2,0.5,3.2c-0.8,0.9-1.9,0.7-2.9,0.4
		C51.4,147.3,47.2,141.8,46.8,137.2z"/>
	<path class="st0" d="M98.9,161.2c-3.2-0.4-6-1.4-8.8-2.5c-0.7-0.3-1.4-0.8-1.2-1.6c0.2-0.8,1-1,1.8-1c2.7-0.1,5.4-0.3,8.1-0.2
		c1.8,0.1,4.5-0.3,4.4,2.5C103.1,160.9,100.5,160.7,98.9,161.2z"/>
	<path class="st0" d="M56,128.3c2.1,0.1,7,4.3,7.3,6.2c0.2,1.1-0.3,1.8-1.2,2.1c-2.4,0.8-4-0.8-5.7-2c-1.5-1-3.1-2.1-2.8-4.3
		C53.8,129,54.6,128.2,56,128.3z"/>
	<path class="st0" d="M73.6,158.1c-3.3-0.5-6.3-1.8-7.3-5.1c-0.5-1.7,1.6-1.3,2.7-1c3,0.8,7.2-0.4,8,4.1
		C77.2,157.7,75.2,158.4,73.6,158.1z"/>
	<path class="st0" d="M42.6,130.5c-0.2,1.7-1.5,2.2-3.1,1.4c-3.1-1.5-4.2-4.5-5-7.6c-0.2-0.8,0.3-1.3,1.3-1.3
		C38,123.1,42.7,127.9,42.6,130.5z"/>
	<path class="st0" d="M110.5,155.6c4.6-1.8,8.3-1.7,11.9-2.1c1-0.1,2.2,0.2,2.4,1.5c0.2,1.6-1.1,2.1-2.3,2.2
		C118.9,157.6,115.2,157.9,110.5,155.6z"/>
	<path class="st0" d="M27.5,103.4c0.2,0.5,0.5,1,0.7,1.6c1,2.4,2.2,4.9,3.1,7.4c0.4,1.2,0.1,2.5-1.2,3c-1.2,0.4-2-0.6-2.4-1.5
		c-1.3-2.4-2.1-4.9-2.3-7.6C25.3,105.1,25.7,104.2,27.5,103.4z"/>
	<path class="st0" d="M93.9,152.4c-1.9-0.4-4.5,0.1-4.1-2.5c0.3-2.6,3-1.9,4.8-2c1.7-0.1,3.7,0.2,3.5,2.5
		C97.8,153,95.4,152,93.9,152.4z"/>
	<path class="st0" d="M112.3,146.9c1.9,0.2,4.1,0,4.4,2.2c0.3,2-1.7,2.2-3.2,2.1c-2-0.2-4.9,0-5.2-2.3
		C107.9,146.3,110.8,147.4,112.3,146.9z"/>
	<path class="st0" d="M88.3,86.8c3.7,2.6,7.3,2.8,11-0.4c-0.7,3.5-2,5.1-4.4,5.4C91.3,92.2,89.5,90,88.3,86.8z"/>
	<path class="st0" d="M72.7,141.2c2.2,0.9,5.2,0.8,6.2,3.6c0.4,1.3-1,1.8-2,1.6c-2.4-0.7-4.9-1.6-5.8-4.2
		C70.7,141.5,71.8,141.2,72.7,141.2z"/>
	<path class="st0" d="M35.9,98.4c1.9,0.8,2.6,2.7,3.3,4.4c0.5,1.2,0.9,2.7-0.3,3.8c-0.6,0.5-1.5,0.3-2-0.4c-1.7-1.9-1.9-4.3-2.3-6.7
		C34.6,98.9,35.1,98.5,35.9,98.4z"/>
	<path class="st0" d="M49.9,120.4c0.1,1.3-0.4,2.1-1.4,2c-2.7-0.4-3.1-2.7-3.7-4.9c-0.2-0.8,0.1-1.8,0.9-1.7
		C48.2,116.5,48.9,118.8,49.9,120.4z"/>
	<path class="st0" d="M24.4,95.4c-2.3-3.2-2-6.4-0.1-11C25.4,88.8,25.3,92.1,24.4,95.4z"/>
	<path class="st0" d="M130.3,150c-1.1,0-1.8-0.4-1.7-1.5c0.2-1.7,1.5-2,2.9-2.2c0.9-0.1,1.9,0.2,1.7,1.4
		C132.9,149.1,131.6,149.7,130.3,150z"/>
</g>
</svg>
